# xmcd
#
# Track frame offsets:
#	150
#	20220
#	36384
#	53547
#	75141
#	89575
#	110015
#	123754
#
# Disc length: 1899 seconds
#
# Revision: 1
# Processed by: cddbd v1.5.2PL0 Copyright (c) Steve Scherf et al.
# Submitted via: audiograbber 1.83.01
#
DISCID=5d076908
DTITLE=Mama Lenny and The Remedy - Punches And Hugs [CD1]
DYEAR=1900
DGENRE=
TTITLE0=Bossy (Bitch On A Cell Phone)
TTITLE1=Not A Girl To Keep
TTITLE2=No Sympathy
TTITLE3=Mixed Messages
TTITLE4=Crying Shame
TTITLE5=Blues In Every Key
TTITLE6=Dangerous To Touch
TTITLE7=Soul Woman
EXTD=
EXTT0=
EXTT1=
EXTT2=
EXTT3=
EXTT4=
EXTT5=
EXTT6=
EXTT7=
PLAYORDER=
